<svg width="60" height="60" viewBox="0 0 60 60" fill="none" xmlns="http://www.w3.org/2000/svg">
<rect width="60" height="60" rx="30" fill="url(#paint0_linear_1_528)"/>
<g clip-path="url(#clip0_1_528)">
<path d="M35.6007 19.8483C35.6007 19.5699 35.7113 19.3028 35.9082 19.1059C36.1051 18.909 36.3722 18.7983 36.6507 18.7983H40.1507C40.4291 18.7983 40.6962 18.909 40.8931 19.1059C41.09 19.3028 41.2007 19.5699 41.2007 19.8483V23.3483C41.2007 23.6268 41.09 23.8939 40.8931 24.0908C40.6962 24.2877 40.4291 24.3983 40.1507 24.3983C39.8722 24.3983 39.6051 24.2877 39.4082 24.0908C39.2113 23.8939 39.1007 23.6268 39.1007 23.3483V22.3823L32.8427 28.6404C32.6458 28.837 32.3789 28.9475 32.1007 28.9475C31.8224 28.9475 31.5555 28.837 31.3587 28.6404L27.9007 25.1823L21.9926 31.0904C21.8965 31.1935 21.7806 31.2763 21.6518 31.3337C21.523 31.3911 21.384 31.4219 21.243 31.4244C21.102 31.4269 20.9619 31.401 20.8312 31.3481C20.7005 31.2953 20.5817 31.2167 20.482 31.117C20.3823 31.0173 20.3037 30.8986 20.2509 30.7678C20.1981 30.6371 20.1721 30.497 20.1746 30.356C20.1771 30.2151 20.208 30.076 20.2653 29.9472C20.3227 29.8184 20.4055 29.7025 20.5086 29.6064L27.1587 22.9563C27.3555 22.7597 27.6224 22.6493 27.9007 22.6493C28.1789 22.6493 28.4458 22.7597 28.6427 22.9563L32.1007 26.4144L37.6167 20.8983H36.6507C36.3722 20.8983 36.1051 20.7877 35.9082 20.5908C35.7113 20.3939 35.6007 20.1268 35.6007 19.8483ZM21.2506 35.5984C21.5291 35.5984 21.7962 35.709 21.9931 35.9059C22.19 36.1028 22.3006 36.3699 22.3006 36.6484V40.1484C22.3006 40.4269 22.19 40.6939 21.9931 40.8908C21.7962 41.0878 21.5291 41.1984 21.2506 41.1984C20.9722 41.1984 20.7051 41.0878 20.5082 40.8908C20.3113 40.6939 20.2006 40.4269 20.2006 40.1484V36.6484C20.2006 36.3699 20.3113 36.1028 20.5082 35.9059C20.7051 35.709 20.9722 35.5984 21.2506 35.5984ZM27.9007 32.4484C27.9007 32.1699 27.79 31.9028 27.5931 31.7059C27.3962 31.509 27.1291 31.3984 26.8507 31.3984C26.5722 31.3984 26.3051 31.509 26.1082 31.7059C25.9113 31.9028 25.8006 32.1699 25.8006 32.4484V40.1484C25.8006 40.4269 25.9113 40.6939 26.1082 40.8908C26.3051 41.0878 26.5722 41.1984 26.8507 41.1984C27.1291 41.1984 27.3962 41.0878 27.5931 40.8908C27.79 40.6939 27.9007 40.4269 27.9007 40.1484V32.4484ZM32.4507 34.1984C32.7291 34.1984 32.9962 34.309 33.1931 34.5059C33.39 34.7028 33.5007 34.9699 33.5007 35.2484V40.1484C33.5007 40.4269 33.39 40.6939 33.1931 40.8908C32.9962 41.0878 32.7291 41.1984 32.4507 41.1984C32.1722 41.1984 31.9051 41.0878 31.7082 40.8908C31.5113 40.6939 31.4007 40.4269 31.4007 40.1484V35.2484C31.4007 34.9699 31.5113 34.7028 31.7082 34.5059C31.9051 34.309 32.1722 34.1984 32.4507 34.1984ZM39.1007 29.6484C39.1007 29.3699 38.99 29.1028 38.7931 28.9059C38.5962 28.709 38.3291 28.5984 38.0507 28.5984C37.7722 28.5984 37.5051 28.709 37.3082 28.9059C37.1113 29.1028 37.0007 29.3699 37.0007 29.6484V40.1484C37.0007 40.4269 37.1113 40.6939 37.3082 40.8908C37.5051 41.0878 37.7722 41.1984 38.0507 41.1984C38.3291 41.1984 38.5962 41.0878 38.7931 40.8908C38.99 40.6939 39.1007 40.4269 39.1007 40.1484V29.6484Z" fill="url(#paint1_linear_1_528)"/>
</g>
<defs>
<linearGradient id="paint0_linear_1_528" x1="-2.79089" y1="3.44646" x2="62.7909" y2="56.5535" gradientUnits="userSpaceOnUse">
<stop offset="0.1245" stop-color="#F22923" stop-opacity="0.03"/>
<stop offset="1" stop-color="#860EBE" stop-opacity="0.03"/>
</linearGradient>
<linearGradient id="paint1_linear_1_528" x1="15.4216" y1="18.7983" x2="42.4862" y2="39.5193" gradientUnits="userSpaceOnUse">
<stop stop-color="#F22923"/>
<stop offset="1" stop-color="#860EBE"/>
</linearGradient>
<clipPath id="clip0_1_528">
<rect width="28" height="28" fill="white" transform="translate(16 16)"/>
</clipPath>
</defs>
</svg>
