<svg width="60" height="60" viewBox="0 0 60 60" fill="none" xmlns="http://www.w3.org/2000/svg">
<rect width="60" height="60" rx="30" fill="url(#paint0_linear_1_544)"/>
<g clip-path="url(#clip0_1_544)">
<path d="M39.6175 43.1256V35.5026M38.0927 35.5026H41.1412M38.0927 43.1256H41.1412M28.9448 43.1256V40.076M18.2722 43.1256L19.132 37.3856C19.2155 36.8653 19.4817 36.3917 19.8828 36.0498C20.2839 35.7079 20.7936 35.5202 21.3207 35.5202C21.8477 35.5202 22.3575 35.7079 22.7586 36.0498C23.1597 36.3917 23.4258 36.8653 23.5093 37.3856L24.3703 43.1256M18.6723 40.4575H23.9702M35.4747 32.0026C36.2831 32.0164 37.0863 31.8708 37.8384 31.5741C38.5906 31.2774 39.2769 30.8355 39.8582 30.2735C40.4396 29.7116 40.9045 29.0406 41.2265 28.299C41.5486 27.5574 41.7213 26.7595 41.735 25.9511C41.7062 24.3189 41.0307 22.765 39.8568 21.6305C38.683 20.4961 37.1069 19.8739 35.4747 19.9008C34.945 19.9008 34.4177 19.965 33.9032 20.0933C33.426 19.1209 32.6839 18.3029 31.7623 17.7337C30.8408 17.1645 29.7772 16.867 28.694 16.8756C27.2809 16.8546 25.911 17.3626 24.8533 18.2999C23.7956 19.2372 23.1265 20.536 22.9773 21.9413C21.7073 22.0391 20.5196 22.6078 19.647 23.5358C18.7745 24.4639 18.28 25.6843 18.2605 26.958C18.2844 28.318 18.8472 29.613 19.8252 30.5584C20.8033 31.5039 22.1166 32.0225 23.4767 32.0003L35.4747 32.0026ZM28.9484 40.076H31.235C31.8415 40.076 32.4231 39.835 32.8519 39.4062C33.2808 38.9774 33.5217 38.3958 33.5217 37.7893C33.5217 37.1828 33.2808 36.6012 32.8519 36.1724C32.4231 35.7435 31.8415 35.5026 31.235 35.5026H28.9484V40.076Z" stroke="url(#paint1_linear_1_544)" stroke-width="1.75" stroke-linecap="round" stroke-linejoin="round"/>
</g>
<defs>
<linearGradient id="paint0_linear_1_544" x1="-2.79089" y1="3.44646" x2="62.7909" y2="56.5535" gradientUnits="userSpaceOnUse">
<stop offset="0.1245" stop-color="#F22923" stop-opacity="0.03"/>
<stop offset="1" stop-color="#860EBE" stop-opacity="0.03"/>
</linearGradient>
<linearGradient id="paint1_linear_1_544" x1="12.9542" y1="16.875" x2="44.2386" y2="39.6931" gradientUnits="userSpaceOnUse">
<stop stop-color="#F22923"/>
<stop offset="1" stop-color="#860EBE"/>
</linearGradient>
<clipPath id="clip0_1_544">
<rect width="28" height="28" fill="white" transform="translate(16 16)"/>
</clipPath>
</defs>
</svg>
