<svg width="60" height="60" viewBox="0 0 60 60" fill="none" xmlns="http://www.w3.org/2000/svg">
<rect width="60" height="60" rx="30" fill="url(#paint0_linear_1_519)"/>
<g clip-path="url(#clip0_1_519)">
<path d="M32.8965 19.6667C33.1943 19.7505 33.4466 19.949 33.598 20.2188C33.7494 20.4886 33.7874 20.8074 33.7038 21.1052L28.5355 39.5245C28.4941 39.6721 28.4241 39.81 28.3294 39.9305C28.2347 40.051 28.1172 40.1516 27.9837 40.2267C27.8501 40.3018 27.703 40.3498 27.5509 40.3681C27.3988 40.3863 27.2445 40.3744 27.097 40.333C26.9494 40.2917 26.8115 40.2217 26.691 40.127C26.5705 40.0323 26.4699 39.9148 26.3948 39.7812C26.3197 39.6477 26.2717 39.5006 26.2535 39.3485C26.2352 39.1963 26.2471 39.0421 26.2885 38.8945L31.4568 20.4752C31.4981 20.3275 31.5682 20.1894 31.663 20.0689C31.7577 19.9483 31.8753 19.8476 32.009 19.7725C32.1427 19.6974 32.2899 19.6494 32.4422 19.6312C32.5945 19.6131 32.7489 19.6251 32.8965 19.6667ZM24.4043 24.2249C24.623 24.4437 24.7459 24.7403 24.7459 25.0497C24.7459 25.3591 24.623 25.6558 24.4043 25.8745L20.2801 29.9999L24.4043 34.124C24.5127 34.2324 24.5987 34.361 24.6574 34.5025C24.7161 34.6441 24.7463 34.7958 24.7464 34.949C24.7464 35.1023 24.7163 35.254 24.6577 35.3956C24.5991 35.5372 24.5132 35.6659 24.4049 35.7743C24.2966 35.8827 24.168 35.9687 24.0264 36.0274C23.8849 36.0861 23.7331 36.1163 23.5799 36.1164C23.4267 36.1164 23.2749 36.0863 23.1333 36.0277C22.9917 35.9691 22.863 35.8832 22.7546 35.7749L17.8045 30.8247C17.5858 30.6059 17.4629 30.3092 17.4629 29.9999C17.4629 29.6905 17.5858 29.3938 17.8045 29.175L22.7546 24.2249C22.9734 24.0062 23.2701 23.8833 23.5795 23.8833C23.8888 23.8833 24.1855 24.0062 24.4043 24.2249ZM35.588 25.8745C35.4765 25.7669 35.3877 25.6382 35.3265 25.4958C35.2654 25.3535 35.2332 25.2004 35.2318 25.0455C35.2305 24.8906 35.26 24.737 35.3187 24.5936C35.3773 24.4502 35.464 24.32 35.5735 24.2104C35.6831 24.1009 35.8133 24.0142 35.9567 23.9556C36.1001 23.8969 36.2537 23.8674 36.4086 23.8687C36.5635 23.8701 36.7166 23.9023 36.8589 23.9634C37.0013 24.0246 37.13 24.1134 37.2376 24.2249L42.1878 29.175C42.4065 29.3938 42.5294 29.6905 42.5294 29.9999C42.5294 30.3092 42.4065 30.6059 42.1878 30.8247L37.2376 35.7749C37.0187 35.9936 36.7219 36.1165 36.4124 36.1164C36.1029 36.1163 35.8061 35.9932 35.5874 35.7743C35.3686 35.5554 35.2458 35.2585 35.2459 34.949C35.246 34.6396 35.3691 34.3428 35.588 34.124L39.7121 29.9999L35.588 25.8745Z" fill="url(#paint1_linear_1_519)"/>
</g>
<defs>
<linearGradient id="paint0_linear_1_519" x1="-2.79089" y1="3.44646" x2="62.7909" y2="56.5535" gradientUnits="userSpaceOnUse">
<stop offset="0.1245" stop-color="#F22923" stop-opacity="0.03"/>
<stop offset="1" stop-color="#860EBE" stop-opacity="0.03"/>
</linearGradient>
<linearGradient id="paint1_linear_1_519" x1="11.7968" y1="19.623" x2="37.7685" y2="45.209" gradientUnits="userSpaceOnUse">
<stop stop-color="#F22923"/>
<stop offset="1" stop-color="#860EBE"/>
</linearGradient>
<clipPath id="clip0_1_519">
<rect width="28" height="28" fill="white" transform="translate(16 16)"/>
</clipPath>
</defs>
</svg>
