<svg width="72" height="72" viewBox="0 0 72 72" fill="none" xmlns="http://www.w3.org/2000/svg">
<rect width="72" height="72" rx="8.4" fill="white"/>
<g clip-path="url(#clip0_1_184)">
<g clip-path="url(#clip1_1_184)">
<path d="M52.798 25.1994C52.798 25.9872 52.3635 26.7674 51.5194 27.4952C50.6752 28.2231 49.4378 28.8844 47.8779 29.4416C46.3181 29.9987 44.4663 30.4405 42.4283 30.7421C40.3902 31.0435 38.2058 31.1987 35.9999 31.1987C31.5448 31.1987 27.2721 30.5666 24.1218 29.4416C20.9716 28.3165 19.2018 26.7905 19.2018 25.1994C19.2018 24.4116 19.6363 23.6314 20.4805 22.9036C21.3246 22.1757 22.562 21.5143 24.1218 20.9572C25.6817 20.4001 27.5335 19.9582 29.5715 19.6567C31.6096 19.3553 33.794 19.2001 35.9999 19.2001C38.2058 19.2001 40.3902 19.3553 42.4283 19.6567C44.4663 19.9582 46.3181 20.4001 47.8779 20.9572C49.4378 21.5143 50.6752 22.1757 51.5194 22.9036C52.3635 23.6314 52.798 24.4116 52.798 25.1994Z" stroke="#333333" stroke-width="2.40005" stroke-linecap="round" stroke-linejoin="round"/>
<path d="M52.7978 46.8007C52.7978 47.8538 52.0216 48.8883 50.5473 49.8003C49.0729 50.7123 46.9523 51.4697 44.3988 51.9962C41.8451 52.5228 38.9483 52.8 35.9996 52.8C33.051 52.8 30.1542 52.5228 27.6006 51.9962C25.047 51.4697 22.9264 50.7123 21.4521 49.8003C19.9777 48.8883 19.2015 47.8538 19.2015 46.8007" stroke="#333333" stroke-width="2.40005" stroke-linecap="round" stroke-linejoin="round"/>
<path d="M52.7978 39.6005C52.7978 40.6536 52.0215 41.6881 50.5473 42.6001C49.0729 43.5121 46.9523 44.2695 44.3986 44.796C41.8451 45.3226 38.9483 45.5997 35.9996 45.5997C33.051 45.5997 30.1542 45.3226 27.6006 44.796C25.047 44.2695 22.9264 43.5121 21.4521 42.6001C19.9777 41.6881 19.2015 40.6536 19.2015 39.6005" stroke="#333333" stroke-width="2.40005" stroke-linecap="round" stroke-linejoin="round"/>
<path d="M52.7978 32.4004C52.7978 33.4535 52.0216 34.488 50.5473 35.4C49.0729 36.312 46.9523 37.0694 44.3988 37.5959C41.8451 38.1225 38.9483 38.3998 35.9996 38.3998C33.051 38.3998 30.1542 38.1225 27.6006 37.5959C25.047 37.0694 22.9264 36.312 21.4521 35.4C19.9777 34.488 19.2015 33.4535 19.2015 32.4004" stroke="#333333" stroke-width="2.40005" stroke-linecap="round" stroke-linejoin="round"/>
<path d="M19.2015 25.2002V46.7978" stroke="#333333" stroke-width="2.40005" stroke-linecap="round" stroke-linejoin="round"/>
<path d="M52.7985 25.2002V46.7978" stroke="#333333" stroke-width="2.40005" stroke-linecap="round" stroke-linejoin="round"/>
</g>
</g>
<defs>
<clipPath id="clip0_1_184">
<rect width="36" height="36" fill="white" transform="translate(18 18)"/>
</clipPath>
<clipPath id="clip1_1_184">
<rect width="36" height="36" fill="white" transform="translate(18 18)"/>
</clipPath>
</defs>
</svg>
