<svg width="60" height="60" viewBox="0 0 60 60" fill="none" xmlns="http://www.w3.org/2000/svg">
<rect width="60" height="60" rx="30" fill="url(#paint0_linear_1_536)"/>
<g clip-path="url(#clip0_1_536)">
<path d="M22.4996 18.4202C22.6481 18.4916 22.7734 18.6035 22.8612 18.7431C22.9489 18.8826 22.9954 19.0441 22.9954 19.2089C22.9954 20.1772 23.3594 20.7349 23.8156 21.4139L23.8494 21.4629C24.2367 22.0392 24.7454 22.794 24.7454 23.8755C24.7454 24.7264 24.4074 25.5425 23.8057 26.1442C23.204 26.7459 22.388 27.0839 21.5371 27.0839C20.6862 27.0839 19.8701 26.7459 19.2684 26.1442C18.6668 25.5425 18.3287 24.7264 18.3287 23.8755C18.3287 23.4462 18.3287 22.7077 18.7756 21.7545C19.2131 20.8212 20.0449 19.749 21.5732 18.5252C21.702 18.4222 21.8574 18.3576 22.0212 18.3391C22.1851 18.3205 22.351 18.3486 22.4996 18.4202ZM21.5371 28.8339C22.5197 28.8356 23.4804 28.5439 24.2962 27.9962C24.6007 28.8526 24.7454 29.9912 24.7454 31.4647C24.7454 33.4621 24.4771 35.8607 24.0396 37.7764C23.8226 38.7284 23.5531 39.6069 23.2322 40.2661C23.0815 40.5944 22.8807 40.8975 22.6372 41.1644C22.3969 41.4106 22.0271 41.6731 21.5371 41.6731C21.0471 41.6731 20.6772 41.4106 20.4381 41.1644C20.1946 40.8975 19.9938 40.5944 19.8431 40.2661C19.5211 39.6057 19.2516 38.7284 19.0346 37.7752C18.5791 35.7018 18.3425 33.5864 18.3287 31.4636C18.3287 29.9912 18.4734 28.8526 18.7779 27.9962C19.5937 28.5439 20.5545 28.8356 21.5371 28.8339ZM25.8934 32.4237C26.4549 32.6705 27.0518 32.8272 27.6621 32.8881V30.2922C27.6621 29.7943 27.7602 29.3013 27.9507 28.8412C28.1413 28.3812 28.4206 27.9632 28.7727 27.6111C29.4837 26.9001 30.4482 26.5006 31.4538 26.5006H34.0496C33.9538 25.5456 33.6238 24.629 33.089 23.8321C32.5542 23.0352 31.831 22.3826 30.9835 21.9321C30.1361 21.4816 29.1906 21.2472 28.2308 21.2496C27.2711 21.252 26.3268 21.4912 25.4816 21.9459C25.3 21.5628 25.0861 21.196 24.8422 20.8492L24.7839 20.7629L24.5751 20.4455C25.6865 19.8308 26.9345 19.505 28.2046 19.4982C29.4747 19.4913 30.7262 19.8036 31.8442 20.4063C32.9621 21.009 33.9108 21.8829 34.6032 22.9477C35.2955 24.0125 35.7093 25.2342 35.8066 26.5006H37.8704C38.3684 26.5006 38.8614 26.5987 39.3215 26.7892C39.7815 26.9797 40.1995 27.259 40.5516 27.6111C40.9036 27.9632 41.1829 28.3812 41.3735 28.8412C41.564 29.3013 41.6621 29.7943 41.6621 30.2922V36.7089C41.6621 37.2068 41.564 37.6999 41.3735 38.1599C41.1829 38.6199 40.9036 39.0379 40.5516 39.39C40.1995 39.7421 39.7815 40.0214 39.3215 40.212C38.8614 40.4025 38.3684 40.5006 37.8704 40.5006H31.4538C30.4482 40.5006 29.4837 40.1011 28.7727 39.39C28.0616 38.6789 27.6621 37.7145 27.6621 36.7089V34.6451C27.0176 34.5959 26.3821 34.4646 25.7709 34.2542C25.8292 33.6359 25.8712 33.0199 25.8934 32.4237ZM37.8704 28.2506H35.7401C35.4921 29.8398 34.7455 31.3092 33.6081 32.4465C32.4707 33.5839 31.0014 34.3305 29.4121 34.5786V36.7089C29.4121 37.8359 30.3268 38.7506 31.4538 38.7506H37.8704C38.4119 38.7506 38.9312 38.5355 39.3141 38.1526C39.697 37.7697 39.9121 37.2504 39.9121 36.7089V30.2922C39.9121 29.7508 39.697 29.2315 39.3141 28.8486C38.9312 28.4657 38.4119 28.2506 37.8704 28.2506ZM29.4121 32.8006C30.5325 32.5705 31.5608 32.0168 32.3696 31.2081C33.1784 30.3993 33.7321 29.371 33.9621 28.2506H31.4538C30.9123 28.2506 30.393 28.4657 30.0101 28.8486C29.6272 29.2315 29.4121 29.7508 29.4121 30.2922V32.8006Z" fill="url(#paint1_linear_1_536)"/>
</g>
<defs>
<linearGradient id="paint0_linear_1_536" x1="-2.79089" y1="3.44646" x2="62.7909" y2="56.5535" gradientUnits="userSpaceOnUse">
<stop offset="0.1245" stop-color="#F22923" stop-opacity="0.03"/>
<stop offset="1" stop-color="#860EBE" stop-opacity="0.03"/>
</linearGradient>
<linearGradient id="paint1_linear_1_536" x1="13.0544" y1="18.3335" x2="41.6682" y2="41.6656" gradientUnits="userSpaceOnUse">
<stop stop-color="#F22923"/>
<stop offset="1" stop-color="#860EBE"/>
</linearGradient>
<clipPath id="clip0_1_536">
<rect width="28" height="28" fill="white" transform="translate(16 16)"/>
</clipPath>
</defs>
</svg>
