<svg width="60" height="60" viewBox="0 0 60 60" fill="none" xmlns="http://www.w3.org/2000/svg">
<rect width="60" height="60" rx="30" fill="url(#paint0_linear_1_569)"/>
<g clip-path="url(#clip0_1_569)">
<path d="M24.5578 33.1112C24.3515 33.1112 24.1537 33.0292 24.0078 32.8833C23.862 32.7375 23.78 32.5397 23.78 32.3334C23.78 32.1271 23.862 31.9293 24.0078 31.7834C24.1537 31.6376 24.3515 31.5557 24.5578 31.5557H35.4466C35.6528 31.5557 35.8507 31.6376 35.9966 31.7834C36.1424 31.9293 36.2244 32.1271 36.2244 32.3334C36.2244 32.5397 36.1424 32.7375 35.9966 32.8833C35.8507 33.0292 35.6528 33.1112 35.4466 33.1112H24.5578ZM24.5578 37.7778C24.3515 37.7778 24.1537 37.6958 24.0078 37.5499C23.862 37.4042 23.78 37.2063 23.78 37.0001C23.78 36.7937 23.862 36.596 24.0078 36.4501C24.1537 36.3042 24.3515 36.2223 24.5578 36.2223H35.4466C35.6528 36.2223 35.8507 36.3042 35.9966 36.4501C36.1424 36.596 36.2244 36.7937 36.2244 37.0001C36.2244 37.2063 36.1424 37.4042 35.9966 37.5499C35.8507 37.6958 35.6528 37.7778 35.4466 37.7778H24.5578Z" fill="url(#paint1_linear_1_569)"/>
<path fill-rule="evenodd" clip-rule="evenodd" d="M31.8432 16H21.4444C20.8256 16 20.2321 16.2458 19.7945 16.6834C19.3569 17.121 19.1111 17.7145 19.1111 18.3333V41.6664C19.1111 42.2853 19.3569 42.8788 19.7945 43.3163C20.2321 43.754 20.8256 43.9998 21.4444 43.9998H38.5553C39.1742 43.9998 39.7677 43.754 40.2053 43.3163C40.6429 42.8788 40.8886 42.2853 40.8886 41.6664V25.6475C40.8885 25.0633 40.6693 24.5005 40.2742 24.0702L33.5636 16.756C33.3449 16.5176 33.079 16.3273 32.7829 16.1971C32.4867 16.067 32.1667 15.9999 31.8432 16ZM20.6666 18.3333C20.6666 18.127 20.7486 17.9292 20.8944 17.7834C21.0403 17.6375 21.2381 17.5555 21.4444 17.5555H31.8432C31.9512 17.5554 32.0579 17.5778 32.1567 17.6212C32.2555 17.6645 32.3443 17.728 32.4172 17.8075L39.1278 25.1217C39.2597 25.2651 39.333 25.4527 39.3331 25.6475V41.6664C39.3331 41.8728 39.2512 42.0705 39.1053 42.2164C38.9594 42.3623 38.7617 42.4442 38.5553 42.4442H21.4444C21.2381 42.4442 21.0403 42.3623 20.8944 42.2164C20.7486 42.0705 20.6666 41.8728 20.6666 41.6664V18.3333Z" fill="url(#paint2_linear_1_569)"/>
<path d="M31.5535 25.3333H40.109C40.3154 25.3333 40.5131 25.4152 40.659 25.5611C40.8049 25.7069 40.8868 25.9048 40.8868 26.111C40.8868 26.3173 40.8049 26.5151 40.659 26.661C40.5131 26.8069 40.3154 26.8888 40.109 26.8888H30.7758C30.5696 26.8888 30.3717 26.8069 30.2259 26.661C30.08 26.5151 29.998 26.3173 29.998 26.111V16.7778C29.998 16.5715 30.08 16.3737 30.2259 16.2278C30.3717 16.0819 30.5696 16 30.7758 16C30.9821 16 31.1799 16.0819 31.3258 16.2278C31.4717 16.3737 31.5535 16.5715 31.5535 16.7778V25.3333Z" fill="url(#paint3_linear_1_569)"/>
</g>
<defs>
<linearGradient id="paint0_linear_1_569" x1="-2.79089" y1="3.44646" x2="62.7909" y2="56.5535" gradientUnits="userSpaceOnUse">
<stop offset="0.1245" stop-color="#F22923" stop-opacity="0.03"/>
<stop offset="1" stop-color="#860EBE" stop-opacity="0.03"/>
</linearGradient>
<linearGradient id="paint1_linear_1_569" x1="20.9671" y1="31.5557" x2="27.907" y2="42.8765" gradientUnits="userSpaceOnUse">
<stop stop-color="#F22923"/>
<stop offset="1" stop-color="#860EBE"/>
</linearGradient>
<linearGradient id="paint2_linear_1_569" x1="14.1884" y1="16" x2="45.8923" y2="36.1124" gradientUnits="userSpaceOnUse">
<stop stop-color="#F22923"/>
<stop offset="1" stop-color="#860EBE"/>
</linearGradient>
<linearGradient id="paint3_linear_1_569" x1="27.5367" y1="16" x2="40.8868" y2="26.8888" gradientUnits="userSpaceOnUse">
<stop stop-color="#F22923"/>
<stop offset="1" stop-color="#860EBE"/>
</linearGradient>
<clipPath id="clip0_1_569">
<rect width="28" height="28" fill="white" transform="translate(16 16)"/>
</clipPath>
</defs>
</svg>
