<svg width="72" height="72" viewBox="0 0 72 72" fill="none" xmlns="http://www.w3.org/2000/svg">
<rect width="72" height="72" rx="8.4" fill="white"/>
<g clip-path="url(#clip0_1_261)">
<g clip-path="url(#clip1_1_261)">
<path d="M31.2745 39.4066H27.9384C25.7264 39.4066 23.605 40.2853 22.0409 41.8494C20.4768 43.4134 19.5981 45.5349 19.5981 47.7468V49.4149H31.3579M41.2827 26.8962C41.2827 28.887 40.4919 30.7962 39.0843 32.2039C37.6765 33.6116 35.7673 34.4024 33.7765 34.4024C31.7858 34.4024 29.8765 33.6116 28.4688 32.2039C27.0612 30.7962 26.2703 28.887 26.2703 26.8962C26.2703 24.9055 27.0612 22.9962 28.4688 21.5885C29.8765 20.1808 31.7858 19.39 33.7765 19.39C35.7673 19.39 37.6765 20.1808 39.0843 21.5885C40.4919 22.9962 41.2827 24.9055 41.2827 26.8962Z" stroke="#333333" stroke-width="2.78008" stroke-linecap="square"/>
<path d="M49.6229 38.5778H39.6146L37.1125 43.5819L44.6188 51.9221L52.125 43.5819L49.6229 38.5778Z" stroke="#333333" stroke-width="2.78008"/>
</g>
</g>
<defs>
<clipPath id="clip0_1_261">
<rect width="36" height="36" fill="white" transform="translate(18 18)"/>
</clipPath>
<clipPath id="clip1_1_261">
<rect width="36" height="36" fill="white" transform="translate(18 18)"/>
</clipPath>
</defs>
</svg>
