<svg width="72" height="72" viewBox="0 0 72 72" fill="none" xmlns="http://www.w3.org/2000/svg">
<rect width="72" height="72" rx="8.4" fill="white"/>
<g clip-path="url(#clip0_1_140)">
<path d="M49.4994 29.9954C47.3244 29.9954 46.1094 32.1554 46.6044 33.7604L41.2794 39.1004C40.8294 38.9654 40.1694 38.9654 39.7194 39.1004L35.8944 35.2754C36.4044 33.6704 35.1894 31.4954 32.9994 31.4954C30.8244 31.4954 29.5944 33.6554 30.1044 35.2754L23.2644 42.1004C21.6594 41.6054 19.4994 42.8204 19.4994 44.9954C19.4994 46.6454 20.8494 47.9954 22.4994 47.9954C24.6744 47.9954 25.8894 45.8354 25.3944 44.2304L32.2194 37.3904C32.6694 37.5254 33.3294 37.5254 33.7794 37.3904L37.6044 41.2154C37.0944 42.8204 38.3094 44.9954 40.4994 44.9954C42.6744 44.9954 43.9044 42.8354 43.3944 41.2154L48.7344 35.8904C50.3394 36.3854 52.4994 35.1704 52.4994 32.9954C52.4994 31.3454 51.1494 29.9954 49.4994 29.9954Z" fill="#333333"/>
<path d="M40.4994 31.5L41.9094 28.395L44.9994 27L41.9094 25.605L40.4994 22.5L39.1194 25.605L35.9994 27L39.1194 28.395L40.4994 31.5ZM23.2494 34.5L23.9994 31.5L26.9994 30.75L23.9994 30L23.2494 27L22.4994 30L19.4994 30.75L22.4994 31.5L23.2494 34.5Z" fill="#333333"/>
</g>
<defs>
<clipPath id="clip0_1_140">
<rect width="36" height="36" fill="white" transform="translate(18 18)"/>
</clipPath>
</defs>
</svg>
