<svg width="22" height="22" viewBox="0 0 22 22" fill="none" xmlns="http://www.w3.org/2000/svg">
<path d="M9.625 11.4057L7.84437 9.625L6.875 10.5944L9.625 13.3444L15.125 7.84437L14.1557 6.875L9.625 11.4057Z" fill="white"/>
<path d="M11 20.625L6.754 18.3611C5.54344 17.7173 4.53111 16.7558 3.8257 15.5801C3.12027 14.4043 2.7484 13.0587 2.75001 11.6875V2.75C2.75001 2.38533 2.89488 2.03559 3.15274 1.77773C3.4106 1.51987 3.76033 1.375 4.12501 1.375H17.875C18.2397 1.375 18.5895 1.51987 18.8473 1.77773C19.1051 2.03559 19.25 2.38533 19.25 2.75V11.6875C19.2517 13.0587 18.8797 14.4043 18.1743 15.5801C17.4689 16.7558 16.4566 17.7173 15.246 18.3611L11 20.625ZM4.12501 2.75V11.6875C4.12424 12.8093 4.42879 13.9102 5.00602 14.872C5.58325 15.834 6.41138 16.6206 7.40163 17.1476L11 19.0664L14.5983 17.1483C15.5888 16.6212 16.417 15.8344 16.9941 14.8724C17.5714 13.9104 17.8759 12.8094 17.875 11.6875V2.75H4.12501Z" fill="white"/>
</svg>
