<svg width="60" height="60" viewBox="0 0 60 60" fill="none" xmlns="http://www.w3.org/2000/svg">
<rect width="60" height="60" rx="30" fill="url(#paint0_linear_1_579)"/>
<g clip-path="url(#clip0_1_579)">
<path d="M29.7317 39.3327V38.166H37.4492C37.6436 38.166 37.8116 38.1062 37.9532 37.9864C38.0955 37.8666 38.1667 37.7095 38.1667 37.515V29.479C38.1667 27.2935 37.3632 25.4684 35.7563 24.0038C34.1487 22.5385 32.2299 21.8058 30 21.8058C27.7701 21.8058 25.8513 22.5385 24.2437 24.0038C22.6368 25.4684 21.8333 27.2935 21.8333 29.479V36.1022H21.25C20.7732 36.1022 20.3622 35.9408 20.0168 35.618C19.6723 35.296 19.5 34.897 19.5 34.421V32.2219C19.5 31.8734 19.6132 31.5643 19.8395 31.2944C20.0666 31.0237 20.3423 30.804 20.6667 30.6352L20.6865 29.2014C20.7223 27.9842 20.998 26.8564 21.5137 25.818C22.0293 24.7797 22.7076 23.8759 23.5483 23.1067C24.3891 22.3375 25.3668 21.7386 26.4813 21.31C27.5959 20.8815 28.7688 20.6668 30 20.666C31.2312 20.6652 32.4033 20.8799 33.5163 21.31C34.627 21.7393 35.6043 22.3375 36.4482 23.1043C37.2921 23.8705 37.9703 24.7727 38.4828 25.811C38.9962 26.8486 39.2731 27.9764 39.3135 29.1944L39.3333 30.5979C39.6429 30.7433 39.9147 30.9389 40.1488 31.1847C40.3829 31.4297 40.5 31.7241 40.5 32.0679V34.5949C40.5 34.9387 40.3829 35.233 40.1488 35.478C39.9147 35.723 39.6429 35.9183 39.3333 36.0637V37.515C39.3333 38.0222 39.1498 38.4519 38.7827 38.8042C38.4156 39.1565 37.9711 39.3327 37.4492 39.3327H29.7317ZM26.3192 31.5487C26.1403 31.3854 26.0508 31.1832 26.0508 30.942C26.0508 30.7009 26.1403 30.4948 26.3192 30.3237C26.4981 30.1526 26.7081 30.067 26.9492 30.067C27.1903 30.067 27.3999 30.1526 27.578 30.3237C27.7561 30.4948 27.8456 30.7009 27.8463 30.942C27.8471 31.1832 27.7577 31.3854 27.578 31.5487C27.3983 31.712 27.1883 31.7937 26.948 31.7937C26.7077 31.7937 26.4981 31.712 26.3192 31.5487ZM32.422 31.5487C32.2431 31.3854 32.1537 31.1832 32.1537 30.942C32.1537 30.7009 32.2431 30.4948 32.422 30.3237C32.6009 30.1526 32.8109 30.067 33.052 30.067C33.2931 30.067 33.5027 30.1526 33.6808 30.3237C33.8589 30.4948 33.9484 30.7009 33.9492 30.942C33.9499 31.1832 33.8605 31.3854 33.6808 31.5487C33.5012 31.712 33.2912 31.7937 33.0508 31.7937C32.8105 31.7937 32.6009 31.712 32.422 31.5487ZM23.8365 29.941C23.7307 28.1942 24.2934 26.7051 25.5247 25.4738C26.7551 24.2426 28.2663 23.627 30.0583 23.627C31.5641 23.627 32.8988 24.0793 34.0623 24.9838C35.2259 25.8884 35.936 27.0765 36.1927 28.548C34.6472 28.5286 33.213 28.1343 31.89 27.365C30.567 26.5958 29.552 25.5263 28.845 24.1567C28.5634 25.503 27.9782 26.6829 27.0892 27.6964C26.1994 28.7098 25.1152 29.458 23.8365 29.941Z" fill="url(#paint1_linear_1_579)"/>
</g>
<defs>
<linearGradient id="paint0_linear_1_579" x1="-2.79089" y1="3.44646" x2="62.7909" y2="56.5535" gradientUnits="userSpaceOnUse">
<stop offset="0.1245" stop-color="#F22923" stop-opacity="0.03"/>
<stop offset="1" stop-color="#860EBE" stop-opacity="0.03"/>
</linearGradient>
<linearGradient id="paint1_linear_1_579" x1="14.7531" y1="20.666" x2="38.03" y2="42.0246" gradientUnits="userSpaceOnUse">
<stop stop-color="#F22923"/>
<stop offset="1" stop-color="#860EBE"/>
</linearGradient>
<clipPath id="clip0_1_579">
<rect width="28" height="28" fill="white" transform="translate(16 16)"/>
</clipPath>
</defs>
</svg>
