<svg width="72" height="72" viewBox="0 0 72 72" fill="none" xmlns="http://www.w3.org/2000/svg">
<rect width="72" height="72" rx="8.4" fill="white"/>
<g clip-path="url(#clip0_1_155)">
<path d="M26.3631 21.1068C26.5541 21.1987 26.7152 21.3426 26.828 21.5219C26.9408 21.7013 27.0006 21.9089 27.0006 22.1208C27.0006 23.3658 27.4686 24.0828 28.0551 24.9558L28.0986 25.0188C28.5966 25.7598 29.2506 26.7303 29.2506 28.1208C29.2506 29.2148 28.816 30.264 28.0424 31.0376C27.2688 31.8112 26.2196 32.2458 25.1256 32.2458C24.0316 32.2458 22.9824 31.8112 22.2088 31.0376C21.4352 30.264 21.0006 29.2148 21.0006 28.1208C21.0006 27.5688 21.0006 26.6193 21.5751 25.3938C22.1376 24.1938 23.2071 22.8153 25.1721 21.2418C25.3377 21.1094 25.5374 21.0264 25.7481 21.0025C25.9589 20.9786 26.172 21.0148 26.3631 21.1068ZM25.1256 34.4958C26.389 34.498 27.6242 34.123 28.6731 33.4188C29.0646 34.5198 29.2506 35.9838 29.2506 37.8783C29.2506 40.4463 28.9056 43.5303 28.3431 45.9933C28.0641 47.2173 27.7176 48.3468 27.3051 49.1943C27.1112 49.6165 26.8532 50.0061 26.5401 50.3493C26.2311 50.6658 25.7556 51.0033 25.1256 51.0033C24.4956 51.0033 24.0201 50.6658 23.7126 50.3493C23.3995 50.0061 23.1415 49.6165 22.9476 49.1943C22.5336 48.3453 22.1871 47.2173 21.9081 45.9918C21.3225 43.326 21.0183 40.6061 21.0006 37.8768C21.0006 35.9838 21.1866 34.5198 21.5781 33.4188C22.627 34.123 23.8623 34.498 25.1256 34.4958ZM30.7266 39.1113C31.4485 39.4286 32.2159 39.6301 33.0006 39.7083V36.3708C33.0006 35.7306 33.1267 35.0967 33.3717 34.5052C33.6167 33.9137 33.9758 33.3763 34.4284 32.9236C35.3427 32.0094 36.5827 31.4958 37.8756 31.4958H41.2131C41.0899 30.268 40.6657 29.0896 39.978 28.065C39.2904 27.0405 38.3605 26.2014 37.271 25.6222C36.1814 25.043 34.9658 24.7415 33.7318 24.7446C32.4979 24.7477 31.2837 25.0552 30.1971 25.6398C29.9636 25.1474 29.6886 24.6757 29.3751 24.2298L29.3001 24.1188L29.0316 23.7108C30.4605 22.9204 32.0651 22.5016 33.6981 22.4928C35.3311 22.484 36.9401 22.8855 38.3775 23.6604C39.8149 24.4353 41.0347 25.5589 41.9248 26.9279C42.815 28.2969 43.347 29.8676 43.4721 31.4958H46.1256C46.7658 31.4958 47.3997 31.6219 47.9912 31.8669C48.5826 32.1119 49.12 32.471 49.5727 32.9236C50.0254 33.3763 50.3845 33.9137 50.6295 34.5052C50.8745 35.0967 51.0006 35.7306 51.0006 36.3708V44.6208C51.0006 45.261 50.8745 45.8949 50.6295 46.4864C50.3845 47.0778 50.0254 47.6153 49.5727 48.0679C49.12 48.5206 48.5826 48.8797 47.9912 49.1247C47.3997 49.3697 46.7658 49.4958 46.1256 49.4958H37.8756C36.5827 49.4958 35.3427 48.9822 34.4284 48.0679C33.5142 47.1537 33.0006 45.9137 33.0006 44.6208V41.9673C32.172 41.9041 31.3549 41.7352 30.5691 41.4648C30.6441 40.6698 30.6981 39.8778 30.7266 39.1113ZM46.1256 33.7458H43.3866C43.0677 35.7891 42.1078 37.6783 40.6454 39.1406C39.1831 40.603 37.2939 41.5629 35.2506 41.8818V44.6208C35.2506 46.0698 36.4266 47.2458 37.8756 47.2458H46.1256C46.8218 47.2458 47.4895 46.9692 47.9817 46.4769C48.474 45.9847 48.7506 45.317 48.7506 44.6208V36.3708C48.7506 35.6746 48.474 35.0069 47.9817 34.5146C47.4895 34.0224 46.8218 33.7458 46.1256 33.7458ZM35.2506 39.5958C36.6911 39.3 38.0132 38.5881 39.0531 37.5483C40.0929 36.5084 40.8048 35.1863 41.1006 33.7458H37.8756C37.1794 33.7458 36.5117 34.0224 36.0194 34.5146C35.5271 35.0069 35.2506 35.6746 35.2506 36.3708V39.5958Z" fill="#333333"/>
</g>
<defs>
<clipPath id="clip0_1_155">
<rect width="36" height="36" fill="white" transform="translate(18 18)"/>
</clipPath>
</defs>
</svg>
